<svg xmlns="http://www.w3.org/2000/svg" enable-background="new 0 0 24 24" viewBox="0 0 24 24"><path d="M8.5,19C7.7,19,7,19.7,7,20.5S7.7,22,8.5,22s1.5-0.7,1.5-1.5S9.3,19,8.5,19z M19,16H7c-0.6,0-1-0.4-1-1s0.4-1,1-1h8.5
	c1.3,0,2.5-0.9,2.9-2.2L20,6.3c0.2-0.5-0.2-1.1-0.7-1.2c-0.1,0-0.2,0-0.3,0H6.7C6.3,3.8,5.2,3,3.9,3H3C2.4,3,2,3.4,2,4s0.4,1,1,1
	h0.9c0.4,0,0.8,0.3,1,0.7L5,6.3l0,0L6.7,12C5,12.2,3.8,13.7,4,15.3C4.2,16.8,5.5,18,7,18h12c0.6,0,1-0.4,1-1S19.6,16,19,16z
	 M16.5,19c-0.8,0-1.5,0.7-1.5,1.5s0.7,1.5,1.5,1.5s1.5-0.7,1.5-1.5S17.3,19,16.5,19z"/></svg>