<svg width="37" height="37" viewBox="0 0 37 37" fill="none" xmlns="http://www.w3.org/2000/svg">
<path d="M24.8108 12.0913H30.8014C31.0256 12.0899 31.2449 12.1562 31.4306 12.2817C31.6163 12.4072 31.7598 12.586 31.842 12.7945L33.8108 17.7163" stroke="#5482FF" stroke-width="2" stroke-linecap="round" stroke-linejoin="round"/>
<path d="M2.31079 21.0913H24.8108" stroke="#5482FF" stroke-width="2" stroke-linecap="round" stroke-linejoin="round"/>
<path d="M26.4983 31.2163C28.3623 31.2163 29.8733 29.7053 29.8733 27.8413C29.8733 25.9773 28.3623 24.4663 26.4983 24.4663C24.6343 24.4663 23.1233 25.9773 23.1233 27.8413C23.1233 29.7053 24.6343 31.2163 26.4983 31.2163Z" stroke="#5482FF" stroke-width="2" stroke-miterlimit="10"/>
<path d="M9.62329 31.2163C11.4873 31.2163 12.9983 29.7053 12.9983 27.8413C12.9983 25.9773 11.4873 24.4663 9.62329 24.4663C7.75933 24.4663 6.24829 25.9773 6.24829 27.8413C6.24829 29.7053 7.75933 31.2163 9.62329 31.2163Z" stroke="#5482FF" stroke-width="2" stroke-miterlimit="10"/>
<path d="M23.1233 27.8413H12.9983" stroke="#5482FF" stroke-width="2" stroke-linecap="round" stroke-linejoin="round"/>
<path d="M6.24829 27.8413H3.43579C3.13742 27.8413 2.85127 27.7228 2.6403 27.5118C2.42932 27.3008 2.31079 27.0147 2.31079 26.7163V10.9663C2.31079 10.6679 2.42932 10.3818 2.6403 10.1708C2.85127 9.95984 3.13742 9.84131 3.43579 9.84131H24.8108V24.9163" stroke="#5482FF" stroke-width="2" stroke-linecap="round" stroke-linejoin="round"/>
<path d="M24.8108 17.7163H33.8108V26.7163C33.8108 27.0147 33.6923 27.3008 33.4813 27.5118C33.2703 27.7228 32.9842 27.8413 32.6858 27.8413H29.8733" stroke="#5482FF" stroke-width="2" stroke-linecap="round" stroke-linejoin="round"/>
</svg>
